<svg width="75" height="75" fill="none" xmlns="http://www.w3.org/2000/svg"><path d="M73.882 24.334a2.356 2.356 0 00-1.755-.595 2.617 2.617 0 00-1.795.908l-2.253 2.612a2.253 2.253 0 00-1.115-.21c-.64.05-1.247.37-1.666.879L54.752 40.762V0H4.279v65.874h29.84l-1.187 1.438-1.863 6.908 6.486-2.796 5.021-5.55h12.176V52.418l13.803-15.254.296.262c.461.41.47 1.169.019 1.692l-8.502 9.858 1.296 1.118 8.501-9.858c1.057-1.227.978-3.06-.177-4.086l-.284-.253 2.046-2.261.002-.001a2.466 2.466 0 00.632-1.775 2.249 2.249 0 00-.565-1.372l2.221-2.575c.925-1.074.854-2.678-.157-3.579zM5.989 64.162V1.711H53.04v41.064h.057L35.525 64.162H5.989zm27.658 7.07l.715-2.65 1.765 1.57-2.48 1.08zm19.394-7.07h-8.916l8.917-9.853v9.853zm-15.616 4.855l-2.122-1.889L63.57 32.726l3.709 3.3-29.855 32.991zm33.056-36.531l-2.055 2.272-3.77-3.354 1.963-2.39a.698.698 0 01.478-.26.502.502 0 01.379.122l3.024 2.692c.141.124.17.295.175.384a.748.748 0 01-.194.534zm2.264-5.692l-2.186 2.535-1.135-1.01 2.204-2.554a.899.899 0 01.612-.32.683.683 0 01.504.168c.317.283.319.812.001 1.18z" fill="url(#paint0_linear_0_309)"/><path d="M33.068 51.22l-.167-.597-.95.537c-.87.491-1.662 1.355-2.43 2.19-.956 1.042-1.947 2.12-2.881 2.26-.21.032-.356.04-.462.038.143-.454.677-1.28.927-1.666.454-.704.705-1.091.688-1.518l-.055-1.342-1.193.618c-.409.21-.876.473-1.387.759-1.912 1.07-4.67 2.612-6.579 2.624a20.37 20.37 0 01.671-2.112l.241.902c2.65-.71 8.612-3.362 9.073-6.614.142-1.015-.374-1.5-.695-1.697-1.819-1.13-6.15 1.606-6.19 1.635-3.28 2.254-4.233 5.257-4.995 8.394l-.19.78.767.238c2.165.673 5.045-.647 7.457-1.952-.312.705-.429 1.39-.058 1.965.373.577 1.025.702 1.551.702.288 0 .537-.037.683-.059 1.531-.23 2.729-1.533 3.888-2.796.592-.644 1.158-1.259 1.697-1.653 1.55.285 7.264.169 9.054-1.508l-1.17-1.248c-1.115 1.042-5.832 1.282-7.295 1.12zm-10.42-2.575c1.07-.734 3.25-1.623 4.093-1.623a.73.73 0 01.13.01.246.246 0 01-.003.027c-.257 1.81-4.295 4.088-7.217 5.021.674-1.378 1.581-2.462 2.996-3.434z" fill="url(#paint1_linear_0_309)"/><path d="M0 7.7h1.71v11.12H0V7.7z" fill="url(#paint2_linear_0_309)"/><path d="M1.711 25.665H.001V70.15h19.676v-1.71H1.71V25.664z" fill="url(#paint3_linear_0_309)"/><path d="M14.544 11.977h29.942v1.71H14.544v-1.71z" fill="url(#paint4_linear_0_309)"/><path d="M14.544 19.676h29.942v1.711H14.544v-1.71z" fill="url(#paint5_linear_0_309)"/><path d="M14.544 27.376h29.942v1.71H14.544v-1.71z" fill="url(#paint6_linear_0_309)"/><path d="M14.544 35.075h29.942v1.711H14.544v-1.71z" fill="url(#paint7_linear_0_309)"/><defs><linearGradient id="paint0_linear_0_309" x1="-1.907" y1="60.613" x2="86.377" y2="55.667" gradientUnits="userSpaceOnUse"><stop stop-color="#F96E09"/><stop offset="1" stop-color="#ECD823"/></linearGradient><linearGradient id="paint1_linear_0_309" x1="-1.907" y1="60.613" x2="86.377" y2="55.667" gradientUnits="userSpaceOnUse"><stop stop-color="#F96E09"/><stop offset="1" stop-color="#ECD823"/></linearGradient><linearGradient id="paint2_linear_0_309" x1="-1.907" y1="60.613" x2="86.377" y2="55.667" gradientUnits="userSpaceOnUse"><stop stop-color="#F96E09"/><stop offset="1" stop-color="#ECD823"/></linearGradient><linearGradient id="paint3_linear_0_309" x1="-1.907" y1="60.613" x2="86.377" y2="55.667" gradientUnits="userSpaceOnUse"><stop stop-color="#F96E09"/><stop offset="1" stop-color="#ECD823"/></linearGradient><linearGradient id="paint4_linear_0_309" x1="-1.907" y1="60.613" x2="86.377" y2="55.667" gradientUnits="userSpaceOnUse"><stop stop-color="#F96E09"/><stop offset="1" stop-color="#ECD823"/></linearGradient><linearGradient id="paint5_linear_0_309" x1="-1.907" y1="60.613" x2="86.377" y2="55.667" gradientUnits="userSpaceOnUse"><stop stop-color="#F96E09"/><stop offset="1" stop-color="#ECD823"/></linearGradient><linearGradient id="paint6_linear_0_309" x1="-1.907" y1="60.613" x2="86.377" y2="55.667" gradientUnits="userSpaceOnUse"><stop stop-color="#F96E09"/><stop offset="1" stop-color="#ECD823"/></linearGradient><linearGradient id="paint7_linear_0_309" x1="-1.907" y1="60.613" x2="86.377" y2="55.667" gradientUnits="userSpaceOnUse"><stop stop-color="#F96E09"/><stop offset="1" stop-color="#ECD823"/></linearGradient></defs></svg>