<svg width="70" height="73" fill="none" xmlns="http://www.w3.org/2000/svg"><path d="M56.9 41.01a.969.969 0 01.631 1.22c-2.158 6.823-5.987 12.216-12.047 16.972a.972.972 0 01-1.197-1.526c5.738-4.502 9.359-9.598 11.395-16.028a.972.972 0 011.218-.637zM12.975 18.734a.974.974 0 00-.844-1.103.97.97 0 00-1.083.869c-.996 8.185-.736 15.4.772 21.443a.97.97 0 101.883-.47c-1.45-5.813-1.695-12.792-.728-20.74v.001zM69.644 6.101a180.518 180.518 0 00-7.844 6.888 64.5 64.5 0 011.946.333.97.97 0 01.782.837c2.015 16.575-.048 29.407-6.31 39.231-5.417 8.492-12.955 13.263-19.605 17.476-1.076.682-2.093 1.326-3.085 1.974a.966.966 0 01-1.062 0 240.833 240.833 0 00-3.085-1.973c-2.916-1.847-5.921-3.751-8.896-6.05a95.114 95.114 0 00-1.41 3.206.971.971 0 01-.832.595h-.064a.97.97 0 01-.84-.485L.13 34.823a.972.972 0 01.25-1.256.97.97 0 011.277.083l4.127 4.132c-1.283-6.85-1.391-14.776-.315-23.624a.97.97 0 01.782-.836 99.73 99.73 0 013.687-.6C17.366 11.604 26.61 10.214 34.232.376a.97.97 0 011.533 0c6.075 7.841 13.248 10.254 18.91 11.431a93.615 93.615 0 0113.98-7.349.972.972 0 01.992 1.645l-.002-.002zM8.324 40.325L18.379 50.39c4.718-9.224 11.816-18.35 20.6-26.47h-.001A111.253 111.253 0 0152.41 13.283 31.405 31.405 0 0135 2.523a30.745 30.745 0 01-12.223 9.087c-4.418 1.813-8.736 2.462-12.547 3.035-1.019.153-1.992.3-2.915.461-1.113 9.643-.771 18.124 1.01 25.219zm51.681-25.647c-15.48 14.756-28.983 32.5-36.668 48.341a107.91 107.91 0 009.082 6.206c.896.564 1.745 1.103 2.579 1.64.834-.54 1.683-1.079 2.578-1.643 13.025-8.245 29.214-18.497 25.11-54.118a131.43 131.43 0 00-2.68-.427v.001zm3.035-5.445c-18.219 9.461-35.189 26.152-43.525 43.224a.972.972 0 01-1.558.26L5.495 40.237 20.052 65.48a100.605 100.605 0 011.216-2.646c4.37-9.161 10.736-19.08 18.61-28.972A204.898 204.898 0 0163.04 9.232z" fill="url(#paint0_linear_0_291)"/><defs><linearGradient id="paint0_linear_0_291" x1="-1.787" y1="59.617" x2="80.978" y2="55.198" gradientUnits="userSpaceOnUse"><stop stop-color="#F96E09"/><stop offset="1" stop-color="#ECD823"/></linearGradient></defs></svg>