<svg width="58" height="67" fill="none" xmlns="http://www.w3.org/2000/svg"><path d="M41.287 60.958h-5.819c-.374 0-.72.18-.928.5l-1.884 2.825H11.085v-.817l5.403-9.726c.097-.166.138-.346.138-.54v-6.65H14.41v6.36l-5.403 9.725a1.047 1.047 0 00-.139.54v2.217c0 .61.499 1.108 1.108 1.108h23.275c.374 0 .72-.18.929-.499l1.884-2.826h5.223c1.468 0 2.868-.61 3.865-1.69l-1.635-1.496a3.017 3.017 0 01-2.23.97z" fill="url(#paint0_linear_0_297)"/><path d="M55.418 54.862c0 .914-.748 1.662-1.662 1.662H28.264a1.667 1.667 0 01-1.662-1.662V38.79h2.216a6.652 6.652 0 006.65-6.65v-4.433c0-.61-.499-1.108-1.108-1.108H22.944a5.276 5.276 0 00-5.001 3.602L14.45 40.66c-.041.11-.055.235-.055.346v3.325h2.217v-3.145l3.436-10.293a3.023 3.023 0 012.895-2.078h10.308v3.325a4.429 4.429 0 01-4.434 4.433h-4.433v18.288a3.873 3.873 0 003.88 3.88h25.49a3.873 3.873 0 003.88-3.88V8.867h-2.217v45.995z" fill="url(#paint1_linear_0_297)"/><path d="M53.756 0H28.265a3.873 3.873 0 00-3.88 3.88v20.504h2.217V3.879c0-.914.748-1.662 1.663-1.662h25.491c.915 0 1.663.748 1.663 1.662V6.65h2.217V3.88A3.873 3.873 0 0053.755 0z" fill="url(#paint2_linear_0_297)"/><path d="M48.768 14.408h2.217v2.217h2.217V13.3c0-.61-.5-1.108-1.109-1.108h-3.325v2.216z" fill="url(#paint3_linear_0_297)"/><path d="M53.202 37.683v-3.325h-2.217v2.217h-2.217v2.217h3.325c.61 0 1.108-.499 1.108-1.109z" fill="url(#paint4_linear_0_297)"/><path d="M28.818 13.3v3.325h2.217v-2.217h2.216v-2.216h-3.324c-.61 0-1.109.498-1.109 1.108z" fill="url(#paint5_linear_0_297)"/><path d="M43.227 16.625c-.61 0-1.109.499-1.109 1.108v5.542c0 .61.499 1.108 1.108 1.108h5.542a1.11 1.11 0 001.108-1.108v-5.542a1.11 1.11 0 00-1.108-1.108h-5.541zm4.433 5.542h-3.325v-3.325h3.325v3.325z" fill="url(#paint6_linear_0_297)"/><path d="M32.143 17.733v5.542c0 .61.499 1.108 1.108 1.108h5.542a1.11 1.11 0 001.108-1.108v-5.542a1.11 1.11 0 00-1.108-1.108h-5.541c-.61 0-1.109.499-1.109 1.108zm2.217 1.109h3.325v3.325H34.36v-3.325z" fill="url(#paint7_linear_0_297)"/><path d="M49.877 33.25v-5.542c0-.61-.5-1.108-1.109-1.108h-5.541c-.61 0-1.109.499-1.109 1.108v5.542c0 .61.499 1.108 1.108 1.108h5.542a1.11 1.11 0 001.108-1.108zm-2.217-1.108h-3.325v-3.325h3.325v3.325z" fill="url(#paint8_linear_0_297)"/><path d="M39.901 33.25v-5.542a1.11 1.11 0 00-1.108-1.108h-1.108v7.758h1.108a1.11 1.11 0 001.108-1.108z" fill="url(#paint9_linear_0_297)"/><path d="M35.468 4.433h11.083V6.65H35.468V4.433z" fill="url(#paint10_linear_0_297)"/><path d="M31.035 4.433h2.216V6.65h-2.216V4.433z" fill="url(#paint11_linear_0_297)"/><path d="M48.768 4.433h2.217V6.65h-2.217V4.433z" fill="url(#paint12_linear_0_297)"/><path d="M33.252 46.55a7.763 7.763 0 007.758 7.758 7.763 7.763 0 007.758-7.758 7.763 7.763 0 00-7.758-7.758 7.763 7.763 0 00-7.758 7.758zm7.758-5.542a5.54 5.54 0 015.541 5.542 5.54 5.54 0 01-5.541 5.542 5.54 5.54 0 01-5.542-5.542 5.54 5.54 0 015.542-5.542z" fill="url(#paint13_linear_0_297)"/><path d="M39.112 49.556c.43.43 1.136.43 1.566 0l4.433-4.433-1.565-1.566-3.644 3.644-1.427-1.427-1.566 1.565 2.203 2.217z" fill="url(#paint14_linear_0_297)"/><path d="M11.085 29.925c.235 0 .457-.07.651-.208l2.3-1.676c3.81-2.73 6.4-6.83 7.245-11.444v-.027l.846-5.32a1.107 1.107 0 00-.638-1.192l-9.96-4.447a1.13 1.13 0 00-.902 0L.653 10.072c-.458.208-.72.693-.638 1.192l.831 5.264v.028c.167.9.402 1.787.693 2.646l2.092-.72a16.229 16.229 0 01-.61-2.314l-.692-4.42 8.728-3.893 8.728 3.893-.706 4.461a15.906 15.906 0 01-6.373 10.03l-1.649 1.192-1.76-1.302a16.107 16.107 0 01-4.793-5.597l-1.967 1.011a18.53 18.53 0 005.444 6.36l2.41 1.773c.223.18.458.249.694.249z" fill="url(#paint15_linear_0_297)"/><path d="M9.949 21.058c.29 0 .582-.11.79-.318l6.65-6.65-1.566-1.566-5.86 5.86-2.536-2.535-1.565 1.566 3.325 3.325c.194.208.47.318.762.318z" fill="url(#paint16_linear_0_297)"/><defs><linearGradient id="paint0_linear_0_297" x1="-1.472" y1="54.308" x2="66.71" y2="51.019" gradientUnits="userSpaceOnUse"><stop stop-color="#F96E09"/><stop offset="1" stop-color="#ECD823"/></linearGradient><linearGradient id="paint1_linear_0_297" x1="-1.472" y1="54.308" x2="66.71" y2="51.019" gradientUnits="userSpaceOnUse"><stop stop-color="#F96E09"/><stop offset="1" stop-color="#ECD823"/></linearGradient><linearGradient id="paint2_linear_0_297" x1="-1.472" y1="54.308" x2="66.71" y2="51.019" gradientUnits="userSpaceOnUse"><stop stop-color="#F96E09"/><stop offset="1" stop-color="#ECD823"/></linearGradient><linearGradient id="paint3_linear_0_297" x1="-1.472" y1="54.308" x2="66.71" y2="51.019" gradientUnits="userSpaceOnUse"><stop stop-color="#F96E09"/><stop offset="1" stop-color="#ECD823"/></linearGradient><linearGradient id="paint4_linear_0_297" x1="-1.472" y1="54.308" x2="66.71" y2="51.019" gradientUnits="userSpaceOnUse"><stop stop-color="#F96E09"/><stop offset="1" stop-color="#ECD823"/></linearGradient><linearGradient id="paint5_linear_0_297" x1="-1.472" y1="54.308" x2="66.71" y2="51.019" gradientUnits="userSpaceOnUse"><stop stop-color="#F96E09"/><stop offset="1" stop-color="#ECD823"/></linearGradient><linearGradient id="paint6_linear_0_297" x1="-1.472" y1="54.308" x2="66.71" y2="51.019" gradientUnits="userSpaceOnUse"><stop stop-color="#F96E09"/><stop offset="1" stop-color="#ECD823"/></linearGradient><linearGradient id="paint7_linear_0_297" x1="-1.472" y1="54.308" x2="66.71" y2="51.019" gradientUnits="userSpaceOnUse"><stop stop-color="#F96E09"/><stop offset="1" stop-color="#ECD823"/></linearGradient><linearGradient id="paint8_linear_0_297" x1="-1.472" y1="54.308" x2="66.71" y2="51.019" gradientUnits="userSpaceOnUse"><stop stop-color="#F96E09"/><stop offset="1" stop-color="#ECD823"/></linearGradient><linearGradient id="paint9_linear_0_297" x1="-1.472" y1="54.308" x2="66.71" y2="51.019" gradientUnits="userSpaceOnUse"><stop stop-color="#F96E09"/><stop offset="1" stop-color="#ECD823"/></linearGradient><linearGradient id="paint10_linear_0_297" x1="-1.472" y1="54.308" x2="66.71" y2="51.019" gradientUnits="userSpaceOnUse"><stop stop-color="#F96E09"/><stop offset="1" stop-color="#ECD823"/></linearGradient><linearGradient id="paint11_linear_0_297" x1="-1.472" y1="54.308" x2="66.71" y2="51.019" gradientUnits="userSpaceOnUse"><stop stop-color="#F96E09"/><stop offset="1" stop-color="#ECD823"/></linearGradient><linearGradient id="paint12_linear_0_297" x1="-1.472" y1="54.308" x2="66.71" y2="51.019" gradientUnits="userSpaceOnUse"><stop stop-color="#F96E09"/><stop offset="1" stop-color="#ECD823"/></linearGradient><linearGradient id="paint13_linear_0_297" x1="-1.472" y1="54.308" x2="66.71" y2="51.019" gradientUnits="userSpaceOnUse"><stop stop-color="#F96E09"/><stop offset="1" stop-color="#ECD823"/></linearGradient><linearGradient id="paint14_linear_0_297" x1="-1.472" y1="54.308" x2="66.71" y2="51.019" gradientUnits="userSpaceOnUse"><stop stop-color="#F96E09"/><stop offset="1" stop-color="#ECD823"/></linearGradient><linearGradient id="paint15_linear_0_297" x1="-1.472" y1="54.308" x2="66.71" y2="51.019" gradientUnits="userSpaceOnUse"><stop stop-color="#F96E09"/><stop offset="1" stop-color="#ECD823"/></linearGradient><linearGradient id="paint16_linear_0_297" x1="-1.472" y1="54.308" x2="66.71" y2="51.019" gradientUnits="userSpaceOnUse"><stop stop-color="#F96E09"/><stop offset="1" stop-color="#ECD823"/></linearGradient></defs></svg>