<svg width="65" height="65" fill="none" xmlns="http://www.w3.org/2000/svg"><path d="M59.48 4.416a5.39 5.39 0 00-9.62-2.249H28.835a4.311 4.311 0 00-6.086 6.086v4.748c0 1.196.97 2.166 2.166 2.166v5.417a1.083 1.083 0 102.167 0v-5.417c1.197 0 2.167-.97 2.167-2.166V8.253a4.296 4.296 0 001.083-2.836 4.278 4.278 0 00-.154-1.083h18.68a5.414 5.414 0 000 2.167H32.5a1.083 1.083 0 100 2.166h16.593L39.81 25.962a6.483 6.483 0 00-1.894 9.04V55.25a4.333 4.333 0 00-4.333 4.333v3.25h-32.5a1.083 1.083 0 000 2.166h56.334a1.083 1.083 0 000-2.166h-4.334v-3.25a4.333 4.333 0 00-4.333-4.333V35.002c.5-.755.837-1.608.986-2.502H58.5A6.507 6.507 0 0065 26V10.833a6.5 6.5 0 00-5.517-6.418l-.002.001zM26 3.251a2.167 2.167 0 110 4.333 2.167 2.167 0 010-4.333zM24.915 13V9.597a3.893 3.893 0 002.166 0V13h-2.166zm29.25-10.834a3.25 3.25 0 11-2.632 5.143l-.006-.009a3.238 3.238 0 012.638-5.134zm-3.203 7.595a5.366 5.366 0 003.203 1.072c.062 0 .12-.016.183-.018L47.91 26.808a6.485 6.485 0 00-4.579-1.89c-.174 0-.345.012-.516.026l8.147-15.182zm-7.63 17.322a4.333 4.333 0 110 8.667 4.333 4.333 0 010-8.667zm7.583 32.5v3.25H35.749v-3.25c0-1.197.97-2.167 2.167-2.167h10.833c1.196 0 2.167.97 2.167 2.166zM40.082 55.25V37.038a6.445 6.445 0 006.5 0V55.25h-6.5zM62.832 26a4.333 4.333 0 01-4.333 4.334h-8.764a6.438 6.438 0 00-.373-1.332l7.648-18.996a5.418 5.418 0 002.43-3.397 4.333 4.333 0 013.392 4.225V26z" fill="url(#paint0_linear_0_298)"/><path d="M63.916 62.833h-2.167a1.083 1.083 0 000 2.167h2.167a1.083 1.083 0 000-2.167z" fill="url(#paint1_linear_0_298)"/><path d="M42.249 32.5h2.167a1.083 1.083 0 000-2.166h-2.167a1.083 1.083 0 000 2.167z" fill="url(#paint2_linear_0_298)"/><defs><linearGradient id="paint0_linear_0_298" x1="-1.66" y1="53.083" x2="75.175" y2="48.806" gradientUnits="userSpaceOnUse"><stop stop-color="#F96E09"/><stop offset="1" stop-color="#ECD823"/></linearGradient><linearGradient id="paint1_linear_0_298" x1="-1.66" y1="53.083" x2="75.175" y2="48.806" gradientUnits="userSpaceOnUse"><stop stop-color="#F96E09"/><stop offset="1" stop-color="#ECD823"/></linearGradient><linearGradient id="paint2_linear_0_298" x1="-1.66" y1="53.083" x2="75.175" y2="48.806" gradientUnits="userSpaceOnUse"><stop stop-color="#F96E09"/><stop offset="1" stop-color="#ECD823"/></linearGradient></defs></svg>