<svg width="63" height="63" fill="none" xmlns="http://www.w3.org/2000/svg"><path fill-rule="evenodd" clip-rule="evenodd" d="M62.125 2.984A2.994 2.994 0 0059.122 0H3.003A2.994 2.994 0 000 2.984v57.032A2.994 2.994 0 003.003 63h56.119a2.994 2.994 0 003.003-2.984V2.984zm-2.002 0v57.032a.998.998 0 01-1.001.995H3.003a.998.998 0 01-1-.995V2.984a.998.998 0 011-.995h56.119a.998.998 0 011.001.995z" fill="url(#paint0_linear_0_295)"/><path fill-rule="evenodd" clip-rule="evenodd" d="M30.213 45.123h14.502a.999.999 0 001-.994.999.999 0 00-1-.995H30.213a.998.998 0 00-1.001.995c0 .549.448.995 1 .995z" fill="url(#paint1_linear_0_295)"/><path fill-rule="evenodd" clip-rule="evenodd" d="M30.213 54.185h17.282c.552 0 1-.446 1-.995a.999.999 0 00-1-.994H30.213a.998.998 0 00-1.001.995c0 .548.448.994 1 .994z" fill="url(#paint2_linear_0_295)"/><path fill-rule="evenodd" clip-rule="evenodd" d="M30.213 49.755H53.12a.999.999 0 001-.995.999.999 0 00-1-.994H30.213a.997.997 0 00-1.001.994c0 .55.448.995 1 .995z" fill="url(#paint3_linear_0_295)"/><path fill-rule="evenodd" clip-rule="evenodd" d="M53.27 17.271a2.328 2.328 0 00-2.335-2.321H32.397a2.328 2.328 0 00-2.336 2.321v18.422a2.328 2.328 0 002.336 2.322h18.538a2.33 2.33 0 002.336-2.322V17.271zm-2.001 0v18.422c0 .183-.15.332-.334.332H32.397a.333.333 0 01-.334-.332V17.271c0-.183.15-.332.334-.332h18.538c.184 0 .334.15.334.332z" fill="url(#paint4_linear_0_295)"/><path fill-rule="evenodd" clip-rule="evenodd" d="M32.16 37.334l20.427-20.298a.99.99 0 000-1.407 1.005 1.005 0 00-1.416 0L30.746 35.928a.99.99 0 000 1.406 1.006 1.006 0 001.415 0z" fill="url(#paint5_linear_0_295)"/><path fill-rule="evenodd" clip-rule="evenodd" d="M52.587 35.928L32.16 15.629a1.005 1.005 0 00-1.415 0 .99.99 0 000 1.407L51.17 37.334c.39.388 1.025.388 1.416 0a.99.99 0 000-1.406z" fill="url(#paint6_linear_0_295)"/><path fill-rule="evenodd" clip-rule="evenodd" d="M25.102 62.004V14.178a.999.999 0 00-1-.995.999.999 0 00-1.002.995v47.826a1 1 0 001.002.995.999.999 0 001-.995z" fill="url(#paint7_linear_0_295)"/><path fill-rule="evenodd" clip-rule="evenodd" d="M18.13 17.271a2.328 2.328 0 00-2.336-2.321H9.31a2.328 2.328 0 00-2.336 2.321v6.444a2.328 2.328 0 002.336 2.322h6.485a2.33 2.33 0 002.336-2.322v-6.444zm-2.002 0v6.444c0 .183-.15.332-.334.332H9.31a.333.333 0 01-.334-.332v-6.444c0-.183.15-.332.334-.332h6.485c.184 0 .334.15.334.332z" fill="url(#paint8_linear_0_295)"/><path fill-rule="evenodd" clip-rule="evenodd" d="M18.13 31.345a2.328 2.328 0 00-2.336-2.321H9.31a2.328 2.328 0 00-2.336 2.321v6.444a2.328 2.328 0 002.336 2.322h6.485a2.33 2.33 0 002.336-2.322v-6.444zm-2.002 0v6.444c0 .183-.15.332-.334.332H9.31a.333.333 0 01-.334-.332v-6.444c0-.183.15-.332.334-.332h6.485c.184 0 .334.15.334.332z" fill="url(#paint9_linear_0_295)"/><path fill-rule="evenodd" clip-rule="evenodd" d="M18.13 45.42a2.328 2.328 0 00-2.336-2.321H9.31a2.328 2.328 0 00-2.336 2.321v6.445a2.328 2.328 0 002.336 2.32h6.485a2.328 2.328 0 002.336-2.32V45.42zm-2.002 0v6.445c0 .183-.15.331-.334.331H9.31a.333.333 0 01-.334-.331V45.42c0-.183.15-.331.334-.331h6.485c.184 0 .334.148.334.331z" fill="url(#paint10_linear_0_295)"/><path fill-rule="evenodd" clip-rule="evenodd" d="M7.989 11.404h53.135a.999.999 0 001.001-.995.999.999 0 00-1.001-.995H7.989a.999.999 0 00-1.001.995c0 .549.448.995 1 .995zm-6.988 0h3.653a.998.998 0 001.001-.995.999.999 0 00-1-.995H1a.999.999 0 00-1 .996c0 .549.449.995 1.001.995z" fill="url(#paint11_linear_0_295)"/><path fill-rule="evenodd" clip-rule="evenodd" d="M51.384 6.696h4.334a.998.998 0 001.001-.995.998.998 0 00-1-.994h-4.335a.999.999 0 00-1 .994c0 .55.448.995 1 .995z" fill="url(#paint12_linear_0_295)"/><path fill-rule="evenodd" clip-rule="evenodd" d="M42.73 6.696h4.334a.999.999 0 001.001-.995.999.999 0 00-1-.994H42.73a.999.999 0 00-1.001.994c0 .55.45.995 1.001.995z" fill="url(#paint13_linear_0_295)"/><path fill-rule="evenodd" clip-rule="evenodd" d="M7.08 6.696h2.838a.999.999 0 001.002-.995.999.999 0 00-1.002-.994H7.08a.999.999 0 00-1 .994c0 .55.448.995 1 .995z" fill="url(#paint14_linear_0_295)"/><defs><linearGradient id="paint0_linear_0_295" x1="-1.586" y1="51.45" x2="71.856" y2="47.418" gradientUnits="userSpaceOnUse"><stop stop-color="#F96E09"/><stop offset="1" stop-color="#ECD823"/></linearGradient><linearGradient id="paint1_linear_0_295" x1="-1.586" y1="51.45" x2="71.856" y2="47.418" gradientUnits="userSpaceOnUse"><stop stop-color="#F96E09"/><stop offset="1" stop-color="#ECD823"/></linearGradient><linearGradient id="paint2_linear_0_295" x1="-1.586" y1="51.45" x2="71.856" y2="47.418" gradientUnits="userSpaceOnUse"><stop stop-color="#F96E09"/><stop offset="1" stop-color="#ECD823"/></linearGradient><linearGradient id="paint3_linear_0_295" x1="-1.586" y1="51.45" x2="71.856" y2="47.418" gradientUnits="userSpaceOnUse"><stop stop-color="#F96E09"/><stop offset="1" stop-color="#ECD823"/></linearGradient><linearGradient id="paint4_linear_0_295" x1="-1.586" y1="51.45" x2="71.856" y2="47.418" gradientUnits="userSpaceOnUse"><stop stop-color="#F96E09"/><stop offset="1" stop-color="#ECD823"/></linearGradient><linearGradient id="paint5_linear_0_295" x1="-1.586" y1="51.45" x2="71.856" y2="47.418" gradientUnits="userSpaceOnUse"><stop stop-color="#F96E09"/><stop offset="1" stop-color="#ECD823"/></linearGradient><linearGradient id="paint6_linear_0_295" x1="-1.586" y1="51.45" x2="71.856" y2="47.418" gradientUnits="userSpaceOnUse"><stop stop-color="#F96E09"/><stop offset="1" stop-color="#ECD823"/></linearGradient><linearGradient id="paint7_linear_0_295" x1="-1.586" y1="51.45" x2="71.856" y2="47.418" gradientUnits="userSpaceOnUse"><stop stop-color="#F96E09"/><stop offset="1" stop-color="#ECD823"/></linearGradient><linearGradient id="paint8_linear_0_295" x1="-1.586" y1="51.45" x2="71.856" y2="47.418" gradientUnits="userSpaceOnUse"><stop stop-color="#F96E09"/><stop offset="1" stop-color="#ECD823"/></linearGradient><linearGradient id="paint9_linear_0_295" x1="-1.586" y1="51.45" x2="71.856" y2="47.418" gradientUnits="userSpaceOnUse"><stop stop-color="#F96E09"/><stop offset="1" stop-color="#ECD823"/></linearGradient><linearGradient id="paint10_linear_0_295" x1="-1.586" y1="51.45" x2="71.856" y2="47.418" gradientUnits="userSpaceOnUse"><stop stop-color="#F96E09"/><stop offset="1" stop-color="#ECD823"/></linearGradient><linearGradient id="paint11_linear_0_295" x1="-1.586" y1="51.45" x2="71.856" y2="47.418" gradientUnits="userSpaceOnUse"><stop stop-color="#F96E09"/><stop offset="1" stop-color="#ECD823"/></linearGradient><linearGradient id="paint12_linear_0_295" x1="-1.586" y1="51.45" x2="71.856" y2="47.418" gradientUnits="userSpaceOnUse"><stop stop-color="#F96E09"/><stop offset="1" stop-color="#ECD823"/></linearGradient><linearGradient id="paint13_linear_0_295" x1="-1.586" y1="51.45" x2="71.856" y2="47.418" gradientUnits="userSpaceOnUse"><stop stop-color="#F96E09"/><stop offset="1" stop-color="#ECD823"/></linearGradient><linearGradient id="paint14_linear_0_295" x1="-1.586" y1="51.45" x2="71.856" y2="47.418" gradientUnits="userSpaceOnUse"><stop stop-color="#F96E09"/><stop offset="1" stop-color="#ECD823"/></linearGradient></defs></svg>