<svg width="65" height="65" fill="none" xmlns="http://www.w3.org/2000/svg"><path d="M0 53.083V22.682a1.083 1.083 0 012.167 0v19.387h13.812a1.083 1.083 0 110 2.166H2.167v8.847a9.75 9.75 0 1019.5 0V29.339H7.854a1.083 1.083 0 010-2.166H22.75a1.084 1.084 0 011.083 1.083c0 27.12.067 25.475-.177 26.875l29.626-29.626a2.168 2.168 0 000-3.063L42.557 11.717a2.169 2.169 0 00-3.063 0l-9.758 9.758a1.084 1.084 0 01-1.533-1.533l9.758-9.757a4.334 4.334 0 016.129 0L54.813 20.91a4.333 4.333 0 010 6.129l-34.47 34.47A11.917 11.917 0 010 53.083zm60.667-11.917H46.222a1.083 1.083 0 000 2.167h14.445a2.167 2.167 0 012.166 2.167v15.166a2.167 2.167 0 01-2.166 2.167H25.334a1.083 1.083 0 000 2.166h35.333A4.335 4.335 0 0065 60.666V45.5a4.336 4.336 0 00-4.333-4.334zM1.083 15.8H15.98a1.083 1.083 0 000-2.166H2.167v-9.3a2.167 2.167 0 012.166-2.166H19.5a2.167 2.167 0 012.167 2.166v17.74a1.083 1.083 0 002.166 0V4.333A4.335 4.335 0 0019.5 0H4.333A4.335 4.335 0 000 4.333v10.383c0 .598.485 1.083 1.083 1.083zM16.25 53.083a4.335 4.335 0 01-4.333 4.333 4.335 4.335 0 01-3.065-7.397 4.335 4.335 0 017.398 3.064zm-2.167 0a2.167 2.167 0 10-4.333 0 2.167 2.167 0 004.333 0z" fill="url(#paint0_linear_0_293)"/><defs><linearGradient id="paint0_linear_0_293" x1="-1.66" y1="53.083" x2="75.175" y2="48.806" gradientUnits="userSpaceOnUse"><stop stop-color="#F96E09"/><stop offset="1" stop-color="#ECD823"/></linearGradient></defs></svg>