<svg width="25" height="26" fill="none" xmlns="http://www.w3.org/2000/svg"><path d="M7.856 5.579c-1.128.136-2.03 1.094-2.161 2.294a44.956 44.956 0 000 9.71c.13 1.201 1.033 2.16 2.161 2.295a37.57 37.57 0 008.904 0c1.128-.136 2.03-1.094 2.161-2.295.252-2.317.323-4.652.213-6.98a.222.222 0 01.057-.16l1.024-1.103c.119-.127.321-.047.334.133.193 2.762.14 5.54-.16 8.295-.211 1.949-1.665 3.474-3.465 3.691a38.937 38.937 0 01-9.232 0c-1.8-.216-3.254-1.742-3.466-3.69a46.667 46.667 0 010-10.08c.212-1.949 1.666-3.475 3.466-3.691a38.946 38.946 0 019.232 0 3.76 3.76 0 011.734.677c.1.071.11.223.025.314l-.791.852a.197.197 0 01-.246.035 2.328 2.328 0 00-.886-.297 37.571 37.571 0 00-8.904 0z" fill="url(#paint0_linear_0_219)"/><path d="M21.209 6.396a.839.839 0 000-1.125.703.703 0 00-1.046 0l-8.348 8.984-2.434-2.62a.703.703 0 00-1.045 0 .839.839 0 000 1.126l2.957 3.182c.288.31.756.31 1.045 0l8.87-9.547z" fill="url(#paint1_linear_0_219)"/><defs><linearGradient id="paint0_linear_0_219" x1="7.091" y1="21.734" x2="7.091" y2="3.723" gradientUnits="userSpaceOnUse"><stop stop-color="#F96E09"/><stop offset="1" stop-color="#ECD823"/></linearGradient><linearGradient id="paint1_linear_0_219" x1="7.091" y1="21.734" x2="7.091" y2="3.723" gradientUnits="userSpaceOnUse"><stop stop-color="#F96E09"/><stop offset="1" stop-color="#ECD823"/></linearGradient></defs></svg>