<svg width="464" height="254" fill="none" xmlns="http://www.w3.org/2000/svg"><path d="M455.14 68.065c-12.827-6.715-47.824 4.588-56.941 10.454a492.87 492.87 0 00-10.044-17.084c-18.775-30.452-34.697-48.099-48.678-53.947a11.094 11.094 0 00-1.733-.563C336.545 6.642 307.488 0 231.6 0S126.655 6.643 125.455 6.925a11.06 11.06 0 00-1.733.563c-13.98 5.849-29.903 23.495-48.678 53.947A491.273 491.273 0 0065 78.519C55.882 72.653 20.884 61.35 8.058 68.065c-13.235 6.929-7.932 28.738 0 34.653 4.952 3.692 18.539 4.816 32.847 3.865a50.18 50.18 0 00-7.515 14.389c22.564 4.23 75.605 4.047 67.678 21.244-11.599 25.155-47.297 21.673-69.302 10.489l4.11 70.924c0 16.574 13.435 30.009 30.01 30.009h18.046c16.575 0 30.01-13.435 30.01-30.009l-.589-6.358h236.492l-.589 6.358c0 16.574 13.435 30.009 30.009 30.009h18.047c16.574 0 30.01-13.435 30.01-30.009l4.108-70.924c-22.004 11.184-57.702 14.667-69.3-10.489-7.928-17.197 45.113-17.014 67.678-21.244a50.13 50.13 0 00-7.515-14.389c14.308.952 27.895-.172 32.847-3.865 7.93-5.915 13.234-27.724-.001-34.653zM289.345 183.94H173.852l-12-43.755h139.492l-11.999 43.755zM85.87 86.452c14.367-25.134 32.725-51.975 45.554-58.161 5.379-1.057 34.726-6.151 100.175-6.151 65.524 0 94.864 5.106 100.172 6.15 12.813 6.177 31.175 33.022 45.549 58.162H85.87z" fill="url(#paint0_linear_1101_59)"/><defs><linearGradient id="paint0_linear_1101_59" x1="53" y1="0" x2="409" y2="283" gradientUnits="userSpaceOnUse"><stop stop-color="#ECD823"/><stop offset="1" stop-color="#F97C09"/></linearGradient></defs></svg>