<svg id="Layer_1" fill="#F1AF19" viewBox="0 0 53 53" xmlns="http://www.w3.org/2000/svg"><path d="M26.5 2.5c-13.252 0-24 10.737-24 24 0 13.252 10.748 24 24 24s24-10.748 24-24c0-13.263-10.748-24-24-24zm19.711 21.871H31.644l10.289-10.288a19.79 19.79 0 014.278 10.288zM28.63 6.79a19.704 19.704 0 0110.288 4.278l-10.288 10.3zm-4.258 0v14.577l-10.289-10.3A19.704 19.704 0 0124.37 6.789zm-13.304 7.294L21.356 24.37H6.789a19.79 19.79 0 014.278-10.288zM6.799 28.629h14.557L11.077 38.917A19.74 19.74 0 016.8 28.63zM24.371 46.21a19.717 19.717 0 01-10.288-4.288l10.288-10.29zM26.5 28.952c-1.357 0-2.452-1.095-2.452-2.452s1.095-2.452 2.452-2.452 2.463 1.095 2.463 2.452-1.106 2.452-2.463 2.452zm2.129 17.26V31.633l10.288 10.289A19.717 19.717 0 0128.63 46.21zm13.294-7.295L31.644 28.63h14.557a19.74 19.74 0 01-4.278 10.288z" id="_x34_8"/></svg>