<svg width="49" height="49" fill="none" xmlns="http://www.w3.org/2000/svg"><path d="M24.5.5C11.248.5.5 11.237.5 24.5c0 13.252 10.748 24 24 24s24-10.748 24-24c0-13.263-10.748-24-24-24zm19.711 21.871H29.644l10.289-10.288a19.79 19.79 0 014.278 10.288zM26.63 4.79a19.705 19.705 0 0110.288 4.278l-10.288 10.3V4.788zm-4.258 0v14.577l-10.289-10.3A19.704 19.704 0 0122.37 4.789zM9.067 12.083L19.356 22.37H4.789a19.79 19.79 0 014.278-10.288zM4.799 26.629h14.557L9.077 36.917A19.74 19.74 0 014.8 26.63zM22.371 44.21a19.717 19.717 0 01-10.288-4.288l10.288-10.29V44.21zM24.5 26.952a2.45 2.45 0 01-2.452-2.452 2.45 2.45 0 012.452-2.452 2.458 2.458 0 012.463 2.452 2.458 2.458 0 01-2.463 2.452zm2.129 17.26V29.633l10.288 10.289A19.717 19.717 0 0126.63 44.21zm13.294-7.295L29.644 26.63h14.557a19.74 19.74 0 01-4.278 10.288z" fill="url(#paint0_linear_1101_61)"/><defs><linearGradient id="paint0_linear_1101_61" x1="43" y1="48" x2="4" y2="2" gradientUnits="userSpaceOnUse"><stop stop-color="#F97C09"/><stop offset="1" stop-color="#ECD823"/></linearGradient></defs></svg>