<svg width="65" height="65" viewBox="0 0 65 65" fill="none" xmlns="http://www.w3.org/2000/svg">
<path d="M0 53.0829V22.6816C0 22.0834 0.485086 21.5983 1.08333 21.5983C1.68158 21.5983 2.16667 22.0834 2.16667 22.6816V42.0689H15.9789C16.5771 42.0689 17.0622 42.5535 17.0622 43.1522C17.0622 43.7504 16.5771 44.2355 15.9789 44.2355H2.16667V53.082C2.16667 56.5651 4.0248 59.7842 7.04167 61.5257C10.0585 63.2672 13.7748 63.2672 16.7917 61.5257C19.8085 59.7842 21.6667 56.5651 21.6667 53.082V29.3392H7.85448C7.25623 29.3392 6.77114 28.8541 6.77114 28.2559C6.77114 27.6572 7.25623 27.1726 7.85448 27.1726H22.75C23.0373 27.1726 23.313 27.2867 23.5161 27.4898C23.7192 27.693 23.8333 27.9686 23.8333 28.2559C23.8333 55.3762 23.8996 53.7308 23.6558 55.1311L53.2822 25.5049C53.688 25.0986 53.9163 24.5478 53.9163 23.9732C53.9163 23.3992 53.688 22.8478 53.2822 22.4416L42.5572 11.7166C42.151 11.3109 41.5996 11.0826 41.0256 11.0826C40.451 11.0826 39.9002 11.3109 39.4939 11.7166L29.7358 21.4748C29.3126 21.8979 28.6263 21.8979 28.2031 21.4748C27.7795 21.0516 27.7795 20.3653 28.2031 19.9421L37.9613 10.1854H37.9608C38.7738 9.3724 39.876 8.91584 41.0256 8.91584C42.1747 8.91584 43.2774 9.37239 44.0899 10.1854L54.8134 20.9088C55.6264 21.7213 56.0829 22.824 56.0829 23.9731C56.0829 25.1227 55.6264 26.2249 54.8134 27.0379L20.3436 61.5087C18.1087 63.7441 15.0778 64.9995 11.9169 65C8.75637 65 5.72489 63.744 3.49013 61.5092C1.25524 59.2738 -0.000186289 56.2425 0.00018514 53.082L0 53.0829ZM60.6667 41.1663H46.2218C45.6236 41.1663 45.1385 41.6514 45.1385 42.2496C45.1385 42.8479 45.6236 43.333 46.2218 43.333H60.6667C61.2412 43.333 61.7926 43.5612 62.1988 43.9675C62.6051 44.3737 62.8333 44.9251 62.8333 45.4996V60.6662C62.8333 61.2407 62.6051 61.7921 62.1988 62.1983C61.7926 62.6046 61.2412 62.8328 60.6667 62.8328H25.3339C24.7357 62.8328 24.2506 63.3179 24.2506 63.9162C24.2506 64.5144 24.7357 64.9995 25.3339 64.9995H60.6667C61.8158 64.9995 62.918 64.543 63.731 63.7305C64.5434 62.9175 65 61.8153 65 60.6662V45.4996C65 44.3505 64.5434 43.2483 63.731 42.4353C62.918 41.6228 61.8157 41.1663 60.6667 41.1663ZM1.08333 15.7991H15.9789C16.5771 15.7991 17.0622 15.314 17.0622 14.7158C17.0622 14.1171 16.5771 13.6325 15.9789 13.6325H2.16667V4.33331C2.16667 3.75876 2.39495 3.20742 2.80119 2.80117C3.20743 2.39493 3.75878 2.16665 4.33333 2.16665H19.5C20.0746 2.16665 20.6259 2.39493 21.0321 2.80117C21.4384 3.20742 21.6667 3.75876 21.6667 4.33331V22.0726C21.6667 22.6709 22.1518 23.156 22.75 23.156C23.3482 23.156 23.8333 22.6709 23.8333 22.0726V4.33331C23.8333 3.18421 23.3768 2.08197 22.5643 1.26904C21.7513 0.456545 20.6491 0 19.5 0H4.33333C3.18423 0 2.08198 0.456545 1.26905 1.26904C0.456548 2.08202 0 3.18424 0 4.33331V14.7158C0 15.314 0.485086 15.7991 1.08333 15.7991ZM16.25 53.0829C16.25 54.232 15.7935 55.3342 14.981 56.1472C14.168 56.9597 13.0657 57.4162 11.9167 57.4162C10.7676 57.4162 9.66531 56.9597 8.85238 56.1472C8.03988 55.3342 7.58333 54.232 7.58333 53.0829C7.58333 51.9338 8.03988 50.8316 8.85238 50.0186C9.66536 49.2061 10.7676 48.7496 11.9167 48.7496C13.0657 48.7496 14.168 49.2061 14.981 50.0186C15.7935 50.8316 16.25 51.9338 16.25 53.0829ZM14.0833 53.0829C14.0833 52.5084 13.8551 51.957 13.4488 51.5508C13.0426 51.1445 12.4912 50.9162 11.9167 50.9162C11.3421 50.9162 10.7908 51.1445 10.3845 51.5508C9.97828 51.957 9.75 52.5084 9.75 53.0829C9.75 53.6574 9.97828 54.2088 10.3845 54.615C10.7908 55.0213 11.3421 55.2496 11.9167 55.2496C12.4912 55.2496 13.0426 55.0213 13.4488 54.615C13.8551 54.2088 14.0833 53.6574 14.0833 53.0829Z" fill="url(#paint0_linear_0_293)"/>
<defs>
<linearGradient id="paint0_linear_0_293" x1="-1.65958" y1="53.0833" x2="75.1748" y2="48.8059" gradientUnits="userSpaceOnUse">
<stop stop-color="#F96E09"/>
<stop offset="1" stop-color="#ECD823"/>
</linearGradient>
</defs>
</svg>
