<svg width="75" height="75" viewBox="0 0 75 75" fill="none" xmlns="http://www.w3.org/2000/svg">
<path d="M73.8819 24.3342C73.4009 23.9063 72.7689 23.6867 72.1275 23.7387C71.4448 23.784 70.7902 24.114 70.3319 24.6469L68.0785 27.259C67.7366 27.0996 67.3588 27.0209 66.9644 27.0483C66.3247 27.099 65.7172 27.4189 65.2977 27.9279L54.7525 40.7617V0H4.27782V65.8738H34.1181L32.9306 67.312L31.0682 74.22L37.5536 71.4236L42.5753 65.8738H54.7508L54.7514 52.4182L68.5543 37.1636L68.8497 37.4261C69.311 37.8361 69.3194 38.5946 68.8688 39.1185L60.3675 48.9756L61.6625 50.0939L70.1644 40.2362C71.2206 39.0093 71.1424 37.1761 69.9871 36.1496L69.7025 35.8966L71.7488 33.6355L71.7506 33.6349C72.188 33.1491 72.419 32.5023 72.3826 31.8596C72.3545 31.3392 72.1498 30.8654 71.818 30.4882L74.0391 27.9133C74.9641 26.8392 74.8928 25.2348 73.8819 24.3342ZM5.98852 64.1625V1.71073H53.0412V42.7749H53.0979L35.5249 64.1625H5.98852ZM33.6473 71.2322L34.3616 68.5826L36.1268 70.1525L33.6473 71.2322ZM53.0412 64.1625H44.1252L53.0418 54.3089L53.0412 64.1625ZM37.4252 69.017L35.3025 67.1283L63.5708 32.7264L67.2795 36.0259L37.4252 69.017ZM70.4813 32.4855L68.4255 34.7579L64.6563 31.4036L66.6191 29.0147C66.7438 28.8626 66.9175 28.7683 67.0965 28.754C67.2045 28.748 67.3472 28.7617 67.4755 28.8763L70.4998 31.5676C70.6413 31.6923 70.6699 31.863 70.6753 31.9525C70.686 32.1411 70.6149 32.3357 70.4813 32.4855ZM72.7453 26.7936L70.5593 29.3287L69.4243 28.3184L71.6281 25.7649C71.7893 25.5769 72.0124 25.4611 72.2404 25.4456C72.3741 25.4378 72.5722 25.4593 72.7441 25.6127C73.0615 25.8956 73.0628 26.4248 72.7453 26.7936Z" fill="url(#paint0_linear_0_309)"/>
<path d="M33.0683 51.22L32.9012 50.6226L31.9505 51.1597C31.0811 51.6514 30.2892 52.5149 29.5218 53.3498C28.5646 54.3917 27.574 55.4706 26.6395 55.6103C26.4307 55.6419 26.2839 55.6497 26.1782 55.6479C26.3209 55.1943 26.855 54.3678 27.105 53.9824C27.5591 53.2782 27.8098 52.8909 27.7931 52.4637L27.7382 51.1222L26.5447 51.7398C26.1365 51.9505 25.6686 52.213 25.1578 52.4989C23.2464 53.5683 20.4877 55.1115 18.5793 55.1234C18.7852 54.3506 19.0018 53.6501 19.25 53.011L19.4911 53.9126C22.1413 53.2025 28.1034 50.5505 28.5636 47.2988C28.7062 46.2844 28.19 45.7998 27.869 45.6017C26.0501 44.4715 21.7194 47.2082 21.6783 47.2374C18.3998 49.4908 17.4456 52.4936 16.6842 55.6313L16.4944 56.4107L17.2612 56.6494C19.4263 57.3225 22.3056 56.0019 24.7177 54.6974C24.4056 55.4016 24.2892 56.0867 24.6604 56.6625C25.0328 57.2389 25.685 57.3643 26.2113 57.3643C26.4989 57.3643 26.7484 57.3267 26.894 57.3052C28.4252 57.0749 29.6229 55.7716 30.7824 54.5094C31.3744 53.8649 31.9401 53.2502 32.4789 52.8564C34.0298 53.1405 39.7432 53.0247 41.5329 51.3484L40.3633 50.1C39.2479 51.142 34.5309 51.3817 33.0683 51.22ZM22.6472 48.6455C23.7183 47.9109 25.8982 47.0217 26.7409 47.0217C26.7898 47.0217 26.8322 47.0253 26.8716 47.0313C26.871 47.0396 26.8698 47.0492 26.868 47.0587C26.6114 48.8687 22.5726 51.1465 19.6509 52.0804C20.3253 50.7019 21.2324 49.6176 22.6472 48.6455Z" fill="url(#paint1_linear_0_309)"/>
<path d="M0 7.6991H1.71085V18.8208H0V7.6991Z" fill="url(#paint2_linear_0_309)"/>
<path d="M1.71101 25.6648H0.000151717V70.151H19.6767V68.4402H1.71116L1.71101 25.6648Z" fill="url(#paint3_linear_0_309)"/>
<path d="M14.5436 11.9768H44.4862V13.6876H14.5436V11.9768Z" fill="url(#paint4_linear_0_309)"/>
<path d="M14.5436 19.6763H44.4862V21.3872H14.5436V19.6763Z" fill="url(#paint5_linear_0_309)"/>
<path d="M14.5436 27.3758H44.4862V29.0867H14.5436V27.3758Z" fill="url(#paint6_linear_0_309)"/>
<path d="M14.5436 35.0754H44.4862V36.7862H14.5436V35.0754Z" fill="url(#paint7_linear_0_309)"/>
<defs>
<linearGradient id="paint0_linear_0_309" x1="-1.90695" y1="60.613" x2="86.377" y2="55.6671" gradientUnits="userSpaceOnUse">
<stop stop-color="#F96E09"/>
<stop offset="1" stop-color="#ECD823"/>
</linearGradient>
<linearGradient id="paint1_linear_0_309" x1="-1.90695" y1="60.613" x2="86.377" y2="55.6671" gradientUnits="userSpaceOnUse">
<stop stop-color="#F96E09"/>
<stop offset="1" stop-color="#ECD823"/>
</linearGradient>
<linearGradient id="paint2_linear_0_309" x1="-1.90695" y1="60.613" x2="86.377" y2="55.6671" gradientUnits="userSpaceOnUse">
<stop stop-color="#F96E09"/>
<stop offset="1" stop-color="#ECD823"/>
</linearGradient>
<linearGradient id="paint3_linear_0_309" x1="-1.90695" y1="60.613" x2="86.377" y2="55.6671" gradientUnits="userSpaceOnUse">
<stop stop-color="#F96E09"/>
<stop offset="1" stop-color="#ECD823"/>
</linearGradient>
<linearGradient id="paint4_linear_0_309" x1="-1.90695" y1="60.613" x2="86.377" y2="55.6671" gradientUnits="userSpaceOnUse">
<stop stop-color="#F96E09"/>
<stop offset="1" stop-color="#ECD823"/>
</linearGradient>
<linearGradient id="paint5_linear_0_309" x1="-1.90695" y1="60.613" x2="86.377" y2="55.6671" gradientUnits="userSpaceOnUse">
<stop stop-color="#F96E09"/>
<stop offset="1" stop-color="#ECD823"/>
</linearGradient>
<linearGradient id="paint6_linear_0_309" x1="-1.90695" y1="60.613" x2="86.377" y2="55.6671" gradientUnits="userSpaceOnUse">
<stop stop-color="#F96E09"/>
<stop offset="1" stop-color="#ECD823"/>
</linearGradient>
<linearGradient id="paint7_linear_0_309" x1="-1.90695" y1="60.613" x2="86.377" y2="55.6671" gradientUnits="userSpaceOnUse">
<stop stop-color="#F96E09"/>
<stop offset="1" stop-color="#ECD823"/>
</linearGradient>
</defs>
</svg>
