<svg width="58" height="67" viewBox="0 0 58 67" fill="none" xmlns="http://www.w3.org/2000/svg">
<path d="M41.2872 60.9584H35.4684C35.0944 60.9584 34.748 61.1385 34.5402 61.4572L32.656 64.2833H11.0847V63.466L16.4878 53.7404C16.5848 53.5741 16.6263 53.394 16.6263 53.2V46.55H14.4097V52.9091L9.00655 62.6347C8.90958 62.8009 8.86801 62.981 8.86801 63.175V65.3917C8.86801 66.0013 9.36676 66.5 9.97634 66.5H33.2514C33.6254 66.5 33.9718 66.3199 34.1796 66.0013L36.0638 63.1751H41.2867C42.7553 63.1751 44.1546 62.5655 45.1521 61.4848L43.5173 59.9886C42.9493 60.6121 42.1322 60.9584 41.2872 60.9584Z" fill="url(#paint0_linear_0_297)"/>
<path d="M55.4182 54.8619C55.4182 55.7763 54.6701 56.5244 53.7557 56.5244H28.264C27.3496 56.5244 26.6015 55.7763 26.6015 54.8619V38.7904H28.8182C32.4895 38.7904 35.4682 35.8117 35.4682 32.1404V27.7071C35.4682 27.0975 34.9694 26.5988 34.3598 26.5988H22.944C20.6718 26.5988 18.663 28.0534 17.9427 30.2009L14.4515 40.6608C14.4099 40.7716 14.3961 40.8963 14.3961 41.0072V44.3322H16.6127V41.1873L20.0486 30.8936C20.4642 29.6467 21.628 28.8015 22.9441 28.8155H33.2516V32.1405C33.2516 34.5926 31.2704 36.5738 28.8182 36.5738H24.3849V54.862C24.3849 57.0094 26.1167 58.7411 28.2641 58.7411H53.7558C55.9031 58.7411 57.6349 57.0094 57.6349 54.862V8.86673H55.4183L55.4182 54.8619Z" fill="url(#paint1_linear_0_297)"/>
<path d="M53.7563 0H28.2646C26.1172 0 24.3855 1.73179 24.3855 3.87917V24.384H26.6021V3.87917C26.6021 2.96479 27.3502 2.21667 28.2646 2.21667H53.7563C54.6707 2.21667 55.4188 2.96479 55.4188 3.87917V6.65001H57.6355V3.87917C57.6355 1.73179 55.9037 0 53.7563 0Z" fill="url(#paint2_linear_0_297)"/>
<path d="M48.7682 14.4083H50.9849V16.625H53.2015V13.3C53.2015 12.6904 52.7028 12.1917 52.0932 12.1917H48.7682V14.4083Z" fill="url(#paint3_linear_0_297)"/>
<path d="M53.2015 37.6834V34.3584H50.9849V36.575H48.7682V38.7917H52.0932C52.7028 38.7917 53.2015 38.293 53.2015 37.6834Z" fill="url(#paint4_linear_0_297)"/>
<path d="M28.8182 13.3V16.625H31.0348V14.4083H33.2515V12.1917H29.9265C29.3169 12.1917 28.8182 12.6904 28.8182 13.3Z" fill="url(#paint5_linear_0_297)"/>
<path d="M43.2265 16.625C42.6169 16.625 42.1182 17.1238 42.1182 17.7334V23.275C42.1182 23.8846 42.6169 24.3834 43.2265 24.3834H48.7682C49.3778 24.3834 49.8765 23.8846 49.8765 23.275V17.7334C49.8765 17.1238 49.3778 16.625 48.7682 16.625H43.2265ZM47.6599 22.1667H44.3348V18.8417H47.6599V22.1667Z" fill="url(#paint6_linear_0_297)"/>
<path d="M32.1432 17.7334V23.275C32.1432 23.8846 32.6419 24.3834 33.2515 24.3834H38.7932C39.4028 24.3834 39.9015 23.8846 39.9015 23.275V17.7334C39.9015 17.1238 39.4028 16.625 38.7932 16.625H33.2515C32.6419 16.625 32.1432 17.1238 32.1432 17.7334ZM34.3598 18.8417H37.6848V22.1667H34.3598V18.8417Z" fill="url(#paint7_linear_0_297)"/>
<path d="M49.8765 33.25V27.7084C49.8765 27.0988 49.3778 26.6 48.7682 26.6H43.2265C42.6169 26.6 42.1182 27.0988 42.1182 27.7084V33.25C42.1182 33.8596 42.6169 34.3584 43.2265 34.3584H48.7682C49.3778 34.3584 49.8765 33.8596 49.8765 33.25ZM47.6599 32.1417H44.3348V28.8167H47.6599V32.1417Z" fill="url(#paint8_linear_0_297)"/>
<path d="M39.9015 33.25V27.7084C39.9015 27.0988 39.4028 26.6 38.7932 26.6H37.6848V34.3584H38.7932C39.4028 34.3584 39.9015 33.8596 39.9015 33.25Z" fill="url(#paint9_linear_0_297)"/>
<path d="M35.4682 4.43334H46.5515V6.65001H35.4682V4.43334Z" fill="url(#paint10_linear_0_297)"/>
<path d="M31.0348 4.43334H33.2515V6.65001H31.0348V4.43334Z" fill="url(#paint11_linear_0_297)"/>
<path d="M48.7682 4.43334H50.9849V6.65001H48.7682V4.43334Z" fill="url(#paint12_linear_0_297)"/>
<path d="M33.2515 46.55C33.2515 50.831 36.7289 54.3084 41.0098 54.3084C45.2908 54.3084 48.7682 50.831 48.7682 46.55C48.7682 42.2691 45.2908 38.7917 41.0098 38.7917C36.7289 38.7917 33.2515 42.2691 33.2515 46.55ZM41.0098 41.0084C44.0716 41.0084 46.5515 43.4883 46.5515 46.55C46.5515 49.6118 44.0716 52.0917 41.0098 52.0917C37.9481 52.0917 35.4682 49.6118 35.4682 46.55C35.4682 43.4883 37.9481 41.0084 41.0098 41.0084Z" fill="url(#paint13_linear_0_297)"/>
<path d="M39.1124 49.5559C39.5419 49.9853 40.2484 49.9853 40.6779 49.5559L45.1112 45.1225L43.5457 43.557L39.902 47.2007L38.475 45.7737L36.9095 47.3392L39.1124 49.5559Z" fill="url(#paint14_linear_0_297)"/>
<path d="M11.0848 29.925C11.3203 29.925 11.542 29.8558 11.736 29.7172L14.0357 28.0409C17.8456 25.3116 20.4363 21.2108 21.2814 16.5973V16.5696L22.1266 11.2496C22.2097 10.7509 21.9464 10.266 21.4893 10.0582L11.5281 5.61102C11.2371 5.48633 10.9185 5.48633 10.6275 5.61102L0.652525 10.0721C0.195333 10.2799 -0.0678923 10.7648 0.0152391 11.2635L0.84649 16.5281V16.5558C1.01274 17.4563 1.24826 18.3429 1.5392 19.202L3.63123 18.4816C3.36801 17.7334 3.17404 16.9576 3.02165 16.1679L2.32893 11.7483L11.057 7.85536L19.7851 11.7483L19.0786 16.2094C18.3305 20.2549 16.0445 23.8431 12.7057 26.2399L11.057 27.4314L9.2975 26.1291C7.28869 24.6605 5.6538 22.7486 4.50392 20.5319L2.53666 21.5433C3.83892 24.0509 5.70928 26.226 7.9813 27.9024L10.3919 29.6757C10.6136 29.8558 10.8493 29.925 11.0848 29.925Z" fill="url(#paint15_linear_0_297)"/>
<path d="M9.94861 21.0584C10.2396 21.0584 10.5305 20.9475 10.7383 20.7397L17.3883 14.0897L15.8228 12.5242L9.96247 18.3846L7.42711 15.8492L5.86163 17.4147L9.18664 20.7397C9.38059 20.9475 9.65768 21.0584 9.94861 21.0584Z" fill="url(#paint16_linear_0_297)"/>
<defs>
<linearGradient id="paint0_linear_0_297" x1="-1.47155" y1="54.3083" x2="66.7099" y2="51.0186" gradientUnits="userSpaceOnUse">
<stop stop-color="#F96E09"/>
<stop offset="1" stop-color="#ECD823"/>
</linearGradient>
<linearGradient id="paint1_linear_0_297" x1="-1.47155" y1="54.3083" x2="66.7099" y2="51.0186" gradientUnits="userSpaceOnUse">
<stop stop-color="#F96E09"/>
<stop offset="1" stop-color="#ECD823"/>
</linearGradient>
<linearGradient id="paint2_linear_0_297" x1="-1.47155" y1="54.3083" x2="66.7099" y2="51.0186" gradientUnits="userSpaceOnUse">
<stop stop-color="#F96E09"/>
<stop offset="1" stop-color="#ECD823"/>
</linearGradient>
<linearGradient id="paint3_linear_0_297" x1="-1.47155" y1="54.3083" x2="66.7099" y2="51.0186" gradientUnits="userSpaceOnUse">
<stop stop-color="#F96E09"/>
<stop offset="1" stop-color="#ECD823"/>
</linearGradient>
<linearGradient id="paint4_linear_0_297" x1="-1.47155" y1="54.3083" x2="66.7099" y2="51.0186" gradientUnits="userSpaceOnUse">
<stop stop-color="#F96E09"/>
<stop offset="1" stop-color="#ECD823"/>
</linearGradient>
<linearGradient id="paint5_linear_0_297" x1="-1.47155" y1="54.3083" x2="66.7099" y2="51.0186" gradientUnits="userSpaceOnUse">
<stop stop-color="#F96E09"/>
<stop offset="1" stop-color="#ECD823"/>
</linearGradient>
<linearGradient id="paint6_linear_0_297" x1="-1.47155" y1="54.3083" x2="66.7099" y2="51.0186" gradientUnits="userSpaceOnUse">
<stop stop-color="#F96E09"/>
<stop offset="1" stop-color="#ECD823"/>
</linearGradient>
<linearGradient id="paint7_linear_0_297" x1="-1.47155" y1="54.3083" x2="66.7099" y2="51.0186" gradientUnits="userSpaceOnUse">
<stop stop-color="#F96E09"/>
<stop offset="1" stop-color="#ECD823"/>
</linearGradient>
<linearGradient id="paint8_linear_0_297" x1="-1.47155" y1="54.3083" x2="66.7099" y2="51.0186" gradientUnits="userSpaceOnUse">
<stop stop-color="#F96E09"/>
<stop offset="1" stop-color="#ECD823"/>
</linearGradient>
<linearGradient id="paint9_linear_0_297" x1="-1.47155" y1="54.3083" x2="66.7099" y2="51.0186" gradientUnits="userSpaceOnUse">
<stop stop-color="#F96E09"/>
<stop offset="1" stop-color="#ECD823"/>
</linearGradient>
<linearGradient id="paint10_linear_0_297" x1="-1.47155" y1="54.3083" x2="66.7099" y2="51.0186" gradientUnits="userSpaceOnUse">
<stop stop-color="#F96E09"/>
<stop offset="1" stop-color="#ECD823"/>
</linearGradient>
<linearGradient id="paint11_linear_0_297" x1="-1.47155" y1="54.3083" x2="66.7099" y2="51.0186" gradientUnits="userSpaceOnUse">
<stop stop-color="#F96E09"/>
<stop offset="1" stop-color="#ECD823"/>
</linearGradient>
<linearGradient id="paint12_linear_0_297" x1="-1.47155" y1="54.3083" x2="66.7099" y2="51.0186" gradientUnits="userSpaceOnUse">
<stop stop-color="#F96E09"/>
<stop offset="1" stop-color="#ECD823"/>
</linearGradient>
<linearGradient id="paint13_linear_0_297" x1="-1.47155" y1="54.3083" x2="66.7099" y2="51.0186" gradientUnits="userSpaceOnUse">
<stop stop-color="#F96E09"/>
<stop offset="1" stop-color="#ECD823"/>
</linearGradient>
<linearGradient id="paint14_linear_0_297" x1="-1.47155" y1="54.3083" x2="66.7099" y2="51.0186" gradientUnits="userSpaceOnUse">
<stop stop-color="#F96E09"/>
<stop offset="1" stop-color="#ECD823"/>
</linearGradient>
<linearGradient id="paint15_linear_0_297" x1="-1.47155" y1="54.3083" x2="66.7099" y2="51.0186" gradientUnits="userSpaceOnUse">
<stop stop-color="#F96E09"/>
<stop offset="1" stop-color="#ECD823"/>
</linearGradient>
<linearGradient id="paint16_linear_0_297" x1="-1.47155" y1="54.3083" x2="66.7099" y2="51.0186" gradientUnits="userSpaceOnUse">
<stop stop-color="#F96E09"/>
<stop offset="1" stop-color="#ECD823"/>
</linearGradient>
</defs>
</svg>
