<svg width="70" height="73" viewBox="0 0 70 73" fill="none" xmlns="http://www.w3.org/2000/svg">
<path d="M56.8997 41.0103C57.1448 41.088 57.3495 41.2597 57.4679 41.4887C57.5864 41.7172 57.6094 41.984 57.5313 42.2293C55.3727 49.0534 51.5441 54.4463 45.4836 59.2018L45.4831 59.2023C45.0613 59.4952 44.4844 59.4078 44.1675 59.0035C43.8504 58.5992 43.9025 58.0175 44.2864 57.6766C50.0253 53.174 53.646 48.0776 55.6817 41.6475C55.7582 41.4011 55.9303 41.1951 56.1585 41.0755C56.3872 40.9564 56.6537 40.9329 56.8998 41.0106L56.8997 41.0103ZM12.9749 18.7344V18.7339C13.0117 18.4753 12.9433 18.2126 12.7845 18.005C12.6257 17.7975 12.3904 17.6631 12.131 17.6314C11.8722 17.5997 11.6113 17.6743 11.4076 17.8374C11.2039 18.0009 11.0742 18.2396 11.0482 18.4998C10.0521 26.6851 10.312 33.9008 11.8196 39.9434C11.9498 40.4643 12.4766 40.7807 12.9969 40.6503C13.5166 40.5205 13.8331 39.993 13.7029 39.4722C12.2525 33.6601 12.0079 26.6806 12.9749 18.7325L12.9749 18.7344ZM69.644 6.10077C66.9918 8.29603 64.3768 10.592 61.8001 12.9888C62.4674 13.0941 63.1172 13.203 63.7458 13.3221C64.1608 13.4008 64.4774 13.7392 64.5279 14.1588C66.543 30.7335 64.4804 43.5659 58.2177 53.3901C52.8015 61.882 45.2629 66.653 38.6131 70.8664C37.5374 71.5477 36.5199 72.1918 35.528 72.8404V72.8409C35.2059 73.053 34.7887 73.053 34.4661 72.8409C33.4751 72.1923 32.4577 71.5483 31.381 70.8669C28.4652 69.0202 25.4597 67.1157 22.4849 64.8167C21.9871 65.8952 21.5175 66.9639 21.0754 68.0225C20.9334 68.3629 20.6108 68.5939 20.2427 68.618H20.1794C19.8332 68.618 19.5131 68.4329 19.3395 68.1329L0.129625 34.8225C-0.113394 34.4003 -0.0061824 33.8631 0.379793 33.5667C0.766265 33.2702 1.31203 33.3055 1.65613 33.65L5.78329 37.782C4.4998 30.9322 4.39163 23.0064 5.46829 14.1584C5.51883 13.7387 5.83536 13.4004 6.25043 13.3217C7.41292 13.1019 8.63866 12.9163 9.93701 12.7216C17.3653 11.6043 26.6088 10.214 34.231 0.376193C34.4148 0.139028 34.6977 0 34.9974 0C35.2976 0 35.5804 0.139028 35.7642 0.376193C41.839 8.21696 49.0117 10.6305 54.6748 11.8071C59.1201 8.96778 63.796 6.50924 68.6542 4.45805C69.0978 4.27097 69.6114 4.43862 69.8606 4.85162C70.1092 5.26409 70.0178 5.79721 69.6462 6.10337L69.644 6.10077ZM8.32473 40.3245L18.3782 50.3897C23.0956 41.1664 30.1941 32.0393 38.9774 23.9201H38.9769C43.1745 20.034 47.6648 16.4781 52.4087 13.283C45.5685 11.7425 39.44 7.95491 34.9985 2.5236C31.7495 6.53035 27.5467 9.6549 22.7757 11.6099C18.358 13.4228 14.0399 14.072 10.2293 14.645C9.21023 14.7983 8.23717 14.9445 7.31406 15.106C6.20109 24.749 6.54264 33.23 8.32492 40.3247L8.32473 40.3245ZM60.0051 14.678C44.5253 29.4339 31.0216 47.1784 23.3366 63.019L23.3361 63.0195C26.2564 65.241 29.2879 67.3121 32.4191 69.2247C33.3145 69.7885 34.1636 70.3282 34.9977 70.8659C35.8319 70.3257 36.681 69.7864 37.5764 69.2217C50.6012 60.9771 66.7899 50.7248 62.686 15.1036C61.8349 14.9569 60.9384 14.8179 60.0051 14.6773L60.0051 14.678ZM63.0403 9.23291C44.821 18.694 27.8513 35.3845 19.5154 52.4565C19.3771 52.7381 19.1121 52.9359 18.8027 52.9875C18.4938 53.0392 18.1788 52.9385 17.9568 52.7166L5.49502 40.2369L20.0521 65.4804C20.4248 64.637 20.8153 63.7865 21.2233 62.9288C21.2365 62.8966 21.2519 62.8649 21.2677 62.8337C25.6389 53.6727 32.0042 43.7545 39.8777 33.8623C46.9078 25.0279 54.6543 16.7891 63.0399 9.23249L63.0403 9.23291Z" fill="url(#paint0_linear_0_291)"/>
<defs>
<linearGradient id="paint0_linear_0_291" x1="-1.78723" y1="59.6167" x2="80.978" y2="55.1984" gradientUnits="userSpaceOnUse">
<stop stop-color="#F96E09"/>
<stop offset="1" stop-color="#ECD823"/>
</linearGradient>
</defs>
</svg>
