<svg width="65" height="65" viewBox="0 0 65 65" fill="none" xmlns="http://www.w3.org/2000/svg">
<path d="M59.4809 4.41635C59.0937 2.30804 57.4941 0.62954 55.4066 0.141695C53.3196 -0.346162 51.1414 0.449096 49.8597 2.16748H28.8346C27.1281 0.657629 24.541 0.737021 22.9296 2.34838C21.3186 3.95979 21.2393 6.54643 22.7486 8.25348V13.0005C22.7486 14.1971 23.7185 15.1673 24.9154 15.1673V20.5837C24.9154 21.1821 25.4001 21.6673 25.9986 21.6673C26.5971 21.6673 27.0818 21.1821 27.0818 20.5837V15.1673C28.2787 15.1673 29.2486 14.1971 29.2486 13.0005V8.25348C29.9428 7.47136 30.3281 6.46297 30.3318 5.41741C30.3272 5.05107 30.2755 4.68698 30.1781 4.33378H48.8573C48.7113 5.0488 48.7113 5.7856 48.8573 6.50059H32.4995C31.901 6.50059 31.4163 6.98573 31.4163 7.58376C31.4163 8.18225 31.901 8.66739 32.4995 8.66739H49.0929L39.81 25.9619C38.3495 26.9009 37.3266 28.3867 36.9707 30.086C36.6148 31.7854 36.9558 33.5563 37.9165 35.0022V55.2496C35.5231 55.2496 33.5829 57.1897 33.5829 59.5827V62.8327H1.08317C0.48514 62.8327 0 63.3178 0 63.9163C0 64.5143 0.48514 64.9995 1.08317 64.9995H57.4169C58.0149 64.9995 58.5 64.5143 58.5 63.9163C58.5 63.3178 58.0149 62.8327 57.4169 62.8327H53.0832V59.5827C53.0832 57.1897 51.1431 55.2496 48.7501 55.2496V35.0022C49.2507 34.2468 49.5866 33.394 49.7358 32.4998H58.5C62.0883 32.4962 64.9964 29.5881 65 25.9999V10.8329C64.9964 7.62554 62.6532 4.9002 59.4826 4.41549L59.4809 4.41635ZM25.9992 3.25065C27.1957 3.25065 28.166 4.22048 28.166 5.41745C28.166 6.61403 27.1957 7.5838 25.9992 7.5838C24.8026 7.5838 23.8323 6.61397 23.8323 5.41745C23.8323 4.22053 24.8026 3.25065 25.9992 3.25065ZM24.916 13.0006V9.59693C25.6233 9.80186 26.375 9.80186 27.0823 9.59693V13.0006H24.916ZM54.1658 2.16748C55.7042 2.16249 57.0354 3.23659 57.3554 4.74192C57.675 6.24678 56.8956 7.76974 55.4878 8.39095C54.0804 9.01166 52.43 8.56052 51.5342 7.31004L51.5279 7.30143C50.8151 6.31347 50.7172 5.0095 51.274 3.92633C51.8303 2.8427 52.9475 2.1633 54.1658 2.16748ZM50.9634 9.76244C51.8879 10.4548 53.0105 10.8307 54.1658 10.8338C54.2283 10.8338 54.2868 10.8175 54.3485 10.8157L47.9106 26.8079C46.6946 25.5968 45.0483 24.9172 43.3322 24.9177C43.1581 24.9177 42.9867 24.9304 42.8158 24.9435L50.9634 9.76244ZM43.3322 27.0837C45.7257 27.0837 47.6658 29.0238 47.6658 31.4173C47.6658 33.8103 45.7257 35.7504 43.3322 35.7504C40.9392 35.7504 38.9991 33.8103 38.9991 31.4173C38.9991 29.0238 40.9392 27.0837 43.3322 27.0837ZM50.9158 59.5834V62.8334H35.7488V59.5834C35.7488 58.3869 36.7187 57.4171 37.9157 57.4171H48.7487C49.9453 57.4171 50.9158 58.3869 50.9158 59.5834ZM40.0822 55.2503V37.0377C42.0904 38.2102 44.5745 38.2102 46.5822 37.0377V55.2503H40.0822ZM62.8321 26.0005C62.8321 28.3935 60.8919 30.3336 58.4989 30.3336H49.7347C49.6585 29.878 49.5338 29.4314 49.362 29.0024L57.0104 10.0063C58.2418 9.24414 59.1169 8.02092 59.4403 6.60892C61.4207 7.04963 62.8299 8.80521 62.8322 10.8337L62.8321 26.0005Z" fill="url(#paint0_linear_0_298)"/>
<path d="M63.9159 62.8332H61.7491C61.1506 62.8332 60.6659 63.3183 60.6659 63.9168C60.6659 64.5149 61.1506 65 61.7491 65H63.9159C64.514 65 64.9991 64.5149 64.9991 63.9168C64.9991 63.3183 64.514 62.8332 63.9159 62.8332Z" fill="url(#paint1_linear_0_298)"/>
<path d="M42.249 32.5005H44.4158C45.0139 32.5005 45.499 32.0153 45.499 31.4173C45.499 30.8188 45.0139 30.3337 44.4158 30.3337H42.249C41.6505 30.3337 41.1659 30.8188 41.1659 31.4173C41.1659 32.0153 41.6505 32.5005 42.249 32.5005Z" fill="url(#paint2_linear_0_298)"/>
<defs>
<linearGradient id="paint0_linear_0_298" x1="-1.65958" y1="53.0833" x2="75.1748" y2="48.8059" gradientUnits="userSpaceOnUse">
<stop stop-color="#F96E09"/>
<stop offset="1" stop-color="#ECD823"/>
</linearGradient>
<linearGradient id="paint1_linear_0_298" x1="-1.65958" y1="53.0833" x2="75.1748" y2="48.8059" gradientUnits="userSpaceOnUse">
<stop stop-color="#F96E09"/>
<stop offset="1" stop-color="#ECD823"/>
</linearGradient>
<linearGradient id="paint2_linear_0_298" x1="-1.65958" y1="53.0833" x2="75.1748" y2="48.8059" gradientUnits="userSpaceOnUse">
<stop stop-color="#F96E09"/>
<stop offset="1" stop-color="#ECD823"/>
</linearGradient>
</defs>
</svg>
