<svg width="25" height="26" viewBox="0 0 25 26" fill="none" xmlns="http://www.w3.org/2000/svg">
<path d="M7.8563 5.57883C6.72832 5.7145 5.82543 6.67255 5.69492 7.87335C5.34435 11.099 5.34435 14.3577 5.69492 17.5834C5.82543 18.7842 6.72832 19.7422 7.8563 19.8779C10.7903 20.2308 13.8257 20.2308 16.7597 19.8779C17.8877 19.7422 18.7906 18.7842 18.9211 17.5834C19.173 15.2656 19.2439 12.9309 19.1338 10.6035C19.131 10.5434 19.1518 10.4848 19.1914 10.4423L20.2152 9.34045C20.3337 9.21292 20.5362 9.29266 20.5488 9.47251C20.742 12.2355 20.6889 15.0134 20.3895 17.7682C20.1778 19.7166 18.7241 21.2425 16.924 21.459C13.8808 21.8251 10.7353 21.8251 7.69208 21.459C5.89195 21.2425 4.43826 19.7166 4.22649 17.7682C3.86257 14.4197 3.86257 11.037 4.22649 7.68853C4.43826 5.7401 5.89196 4.21417 7.69208 3.99766C10.7353 3.63164 13.8808 3.63164 16.924 3.99766C17.558 4.07391 18.149 4.3126 18.6579 4.67496C18.7581 4.74626 18.768 4.89777 18.6831 4.98914L17.8918 5.84074C17.827 5.9104 17.7266 5.92212 17.6459 5.87559C17.3765 5.72021 17.077 5.61699 16.7597 5.57883C13.8257 5.22594 10.7903 5.22594 7.8563 5.57883Z" fill="url(#paint0_linear_0_219)"/>
<path d="M21.2085 6.39646C21.4972 6.0858 21.4972 5.58211 21.2085 5.27145C20.9199 4.96078 20.4518 4.96078 20.1631 5.27145L11.8152 14.255L9.38102 11.6355C9.09234 11.3248 8.62429 11.3248 8.33561 11.6355C8.04692 11.9462 8.04692 12.4499 8.33561 12.7605L11.2925 15.9426C11.5812 16.2532 12.0492 16.2532 12.3379 15.9426L21.2085 6.39646Z" fill="url(#paint1_linear_0_219)"/>
<defs>
<linearGradient id="paint0_linear_0_219" x1="7.09129" y1="21.7336" x2="7.09129" y2="3.72314" gradientUnits="userSpaceOnUse">
<stop stop-color="#F96E09"/>
<stop offset="1" stop-color="#ECD823"/>
</linearGradient>
<linearGradient id="paint1_linear_0_219" x1="7.09129" y1="21.7336" x2="7.09129" y2="3.72314" gradientUnits="userSpaceOnUse">
<stop stop-color="#F96E09"/>
<stop offset="1" stop-color="#ECD823"/>
</linearGradient>
</defs>
</svg>
