<svg width="464" height="254" viewBox="0 0 464 254" fill="none" xmlns="http://www.w3.org/2000/svg">
<path d="M455.14 68.065C442.313 61.35 407.316 72.653 398.199 78.519C395.214 73.208 391.827 67.391 388.155 61.435C369.38 30.983 353.458 13.336 339.477 7.488C338.916 7.253 338.336 7.065 337.744 6.925C336.545 6.642 307.488 0 231.6 0C155.712 0 126.655 6.643 125.455 6.925C124.862 7.065 124.283 7.253 123.722 7.488C109.742 13.337 93.8185 30.983 75.0435 61.435C71.3715 67.391 67.9835 73.208 64.9995 78.519C55.8825 72.653 20.8845 61.35 8.05852 68.065C-5.17648 74.994 0.126522 96.803 8.05852 102.718C13.0105 106.41 26.5975 107.534 40.9055 106.583C37.6685 110.894 35.1175 115.746 33.3905 120.972C55.9545 125.202 108.996 125.019 101.069 142.216C89.4705 167.371 53.7725 163.889 31.7675 152.705L35.8765 223.629C35.8765 240.203 49.3125 253.638 65.8865 253.638H83.9335C100.508 253.638 113.943 240.203 113.943 223.629L113.354 217.271H349.846L349.257 223.629C349.257 240.203 362.692 253.638 379.266 253.638H397.313C413.887 253.638 427.323 240.203 427.323 223.629L431.431 152.705C409.427 163.889 373.729 167.372 362.131 142.216C354.203 125.019 407.244 125.202 429.809 120.972C428.082 115.745 425.532 110.893 422.294 106.583C436.602 107.535 450.189 106.411 455.141 102.718C463.071 96.803 468.375 74.994 455.14 68.065ZM289.345 183.94H173.852L161.852 140.185H301.344L289.345 183.94ZM85.8705 86.452C100.237 61.318 118.595 34.477 131.424 28.291C136.803 27.234 166.15 22.14 231.599 22.14C297.123 22.14 326.463 27.246 331.771 28.29C344.584 34.467 362.946 61.312 377.32 86.452H85.8705Z" fill="url(#paint0_linear_1101_59)"/>
<defs>
<linearGradient id="paint0_linear_1101_59" x1="53" y1="1.36895e-05" x2="409" y2="283" gradientUnits="userSpaceOnUse">
<stop stop-color="#ECD823"/>
<stop offset="1" stop-color="#F97C09"/>
</linearGradient>
</defs>
</svg>
