<svg width="49" height="49" viewBox="0 0 49 49" fill="none" xmlns="http://www.w3.org/2000/svg">
<path d="M24.5 0.5C11.2478 0.5 0.5 11.2374 0.5 24.5C0.5 37.7522 11.2478 48.5 24.5 48.5C37.7521 48.5 48.5 37.7522 48.5 24.5C48.5 11.2374 37.7521 0.5 24.5 0.5ZM44.2113 22.3713H29.6443L39.933 12.0826C42.2496 14.9626 43.7939 18.5 44.2113 22.3713ZM26.6287 4.78868C30.5 5.2061 34.0373 6.73998 36.9174 9.06698L26.6287 19.3661V4.78868ZM22.3713 4.78868V19.3661L12.0826 9.06698C14.9626 6.73998 18.5 5.2061 22.3713 4.78868ZM9.06692 12.0826L19.3557 22.3713H4.78868C5.2061 18.5 6.75042 14.9626 9.06692 12.0826ZM4.79913 26.6287H19.3557L9.07736 36.9174C6.75042 34.027 5.21648 30.5 4.79913 26.6287ZM22.3713 44.2113C18.5 43.7939 14.9626 42.2496 12.0826 39.9226L22.3713 29.6339V44.2113ZM24.5 26.9521C23.1434 26.9521 22.0478 25.8565 22.0478 24.5C22.0478 23.1435 23.1434 22.0479 24.5 22.0479C25.8565 22.0479 26.9626 23.1435 26.9626 24.5C26.9626 25.8565 25.8565 26.9521 24.5 26.9521ZM26.6287 44.2113V29.6339L36.9174 39.9226C34.0373 42.2496 30.5 43.7939 26.6287 44.2113ZM39.9226 36.9174L29.6443 26.6287H44.2009C43.7835 30.5 42.2496 34.027 39.9226 36.9174Z" fill="url(#paint0_linear_1101_61)"/>
<defs>
<linearGradient id="paint0_linear_1101_61" x1="43" y1="48" x2="4" y2="2" gradientUnits="userSpaceOnUse">
<stop stop-color="#F97C09"/>
<stop offset="1" stop-color="#ECD823"/>
</linearGradient>
</defs>
</svg>
