<!-- icon666.com - MILLIONS vector ICONS FREE --><svg id="Layer_1" enable-background="new 0 0 53 53" fill="#F1AF19" viewBox="0 0 53 53" xmlns="http://www.w3.org/2000/svg"><g id="_x34_8"><path d="m26.5 2.5c-13.2521868 0-24 10.7373686-24 24 0 13.2521858 10.7478132 24 24 24 13.2521248 0 24-10.7478142 24-24 0-13.2626314-10.7478752-24-24-24zm19.7112541 21.8713264h-14.5669136l10.288681-10.288743c2.3165551 2.8800097 3.8608819 6.4174166 4.2782326 10.288743zm-17.5825805-17.5826458c3.8713264.4174165 7.4086685 1.9512991 10.288681 4.2782988l-10.288681 10.2991247zm-4.2574101 0v14.5774231l-10.2886801-10.2991243c2.8800097-2.3269997 6.4174166-3.8608823 10.2886801-4.2782988zm-13.304348 7.2939028 10.288744 10.288743h-14.5669789c.4174165-3.8713264 1.9617438-7.4087333 4.2782349-10.288743zm-4.2677903 14.5460902h14.5565338l-10.2782979 10.288742c-2.3269367-2.8904533-3.8608828-6.4174156-4.2782359-10.288742zm17.5721383 17.5826454c-3.8712635-.4174156-7.4086704-1.9617424-10.2886801-4.2886811l10.2886801-10.2887421zm2.1287365-17.2591706c-1.3565731 0-2.4522114-1.0956402-2.4522114-2.4521484s1.0956383-2.4521484 2.4522114-2.4521484c1.3565083 0 2.4625931 1.0956402 2.4625931 2.4521484s-1.1060848 2.4521484-2.4625931 2.4521484zm2.1286736 17.2591706v-14.5774231l10.288681 10.2887421c-2.8800125 2.3269386-6.4173546 3.8712654-10.288681 4.288681zm13.2939033-7.2939034-10.2782364-10.288742h14.5565338c-.4174156 3.8713264-1.9512977 7.3982887-4.2782974 10.288742z"></path></g></svg>